<svg width="463" height="463" fill="none" xmlns="http://www.w3.org/2000/svg"><path fill-rule="evenodd" clip-rule="evenodd" d="M81.2933 185.453C102.041 143.885 135.31 112.946 181.028 93.0719C182.047 92.6351 182.556 92.2711 182.12 92.2711C180.882 92.1983 164.284 99.0414 157.878 102.317C112.014 125.395 79.5462 163.614 65.0592 211.588C59.7449 229.133 57.7793 242.892 57.7793 262.911C57.7793 291.521 63.5304 316.637 75.8334 342.044C78.527 347.649 78.5998 347.722 81.3661 347.722H84.2053L82.0213 343.281C78.3814 336.147 73.5767 323.917 70.8831 314.962C57.8521 271.938 61.6377 225.129 81.2933 185.453ZM384.937 199.576C360.549 148.617 313.157 113.456 257.393 105.011C253.244 104.356 244.945 103.7 238.903 103.482L227.983 103.191L236.719 104.21C291.682 110.762 336.307 137.479 364.408 180.649C382.826 208.967 391.562 238.378 391.634 272.375C391.634 300.257 386.538 323.407 375.182 346.266C372.343 352.09 369.868 357.04 369.722 357.331C369.576 357.695 370.304 357.914 371.324 357.914C373.58 357.914 375.4 355.293 381.952 342.48C389.887 327.047 395.493 310.158 398.332 293.123C399.933 283.513 400.516 261.892 399.497 251.992C397.458 233.282 392.508 215.447 384.937 199.576ZM231.113 138.28C231.623 138.061 231.987 136.606 231.987 134.786C231.987 132.31 231.696 131.582 230.531 131.291C229.22 130.927 229.075 131.291 229.075 134.203V137.552L226.527 137.115L223.979 136.678L224.416 139.517L224.852 142.284L219.174 142.793C211.894 143.376 211.603 143.521 212.113 145.269C212.404 146.361 213.714 147.016 217.864 147.962C220.776 148.69 223.615 149.491 224.052 149.782C225.872 150.874 223.906 152.403 218.592 154.077C214.515 155.315 213.059 156.116 213.059 157.062C213.059 158.081 213.933 158.445 217.718 158.809C220.193 159.1 222.741 159.537 223.178 159.901C223.906 160.338 223.979 163.25 223.615 172.568L223.032 184.653H214.806H206.507V176.645C206.507 171.767 206.216 168.637 205.779 168.637C205.342 168.637 205.051 171.767 205.051 176.645V184.653H200.319H195.66L195.369 177.518L195.151 170.457L195.005 177.518L194.859 184.653H190.855H186.924L186.633 178.246L186.415 171.913L186.269 178.246L186.124 184.653H178.698H171.2L167.56 187.856C164.284 190.768 164.065 191.205 165.157 192.078C165.813 192.588 168.069 196.592 170.035 200.887L173.675 208.749L171.855 209.404C170.836 209.841 169.744 210.132 169.38 210.132C169.016 210.132 168.506 210.423 168.288 210.86C167.997 211.37 189.763 211.588 233.006 211.588H298.234L297.797 209.55C297.506 208.312 298.234 204.6 299.69 199.868C300.927 195.718 302.019 191.933 302.092 191.423C302.165 190.986 300.49 189.239 298.306 187.637L294.302 184.653H283.164H272.026L271.808 172.423L271.589 160.265L271.444 172.423L271.298 184.653H264.018H256.665L257.029 182.25C257.248 181.013 257.539 177.446 257.685 174.461C257.83 171.476 257.83 169.947 257.685 171.039C257.321 173.587 255.792 173.223 255.137 170.384C254.773 169.001 254.773 169.438 254.991 171.549C255.21 173.369 255.574 177.009 255.792 179.702L256.229 184.653H244.508H232.86L232.496 181.522C232.205 179.848 231.841 174.315 231.55 169.292L231.113 160.12L232.788 159.683C233.734 159.464 236.427 159.028 238.757 158.809C241.014 158.518 243.125 157.936 243.343 157.572C243.926 156.698 242.251 155.533 240.723 155.606C239.922 155.679 239.995 155.824 240.941 156.043C243.489 156.698 242.033 157.426 236.719 158.154C230.822 158.882 230.531 158.736 230.531 155.096C230.531 154.15 230.968 153.349 231.477 153.349C232.132 153.349 232.132 153.131 231.404 152.694C230.822 152.33 230.531 151.529 230.676 150.801C230.822 149.782 232.496 149.127 237.447 147.962C243.125 146.652 243.999 146.215 244.217 144.759C244.363 143.885 244.144 143.157 243.78 143.157C243.416 143.157 243.125 143.667 243.198 144.395C243.271 145.269 242.033 145.924 238.175 146.87C233.907 147.997 232.066 148.524 231.224 147.833C230.544 147.274 230.515 145.921 230.385 143.449C230.24 140.027 230.458 138.498 231.113 138.28ZM238.539 155.388C239.121 155.388 238.466 154.951 237.083 154.441C235.699 153.932 234.025 153.495 233.443 153.495C232.86 153.495 233.515 153.932 234.899 154.441C236.282 154.951 237.956 155.388 238.539 155.388ZM320.801 235.393C320.801 232.773 317.962 189.749 317.525 184.798C317.234 182.323 316.797 180.285 316.506 180.285C315.778 180.285 315.123 192.005 314.613 214.136C314.031 236.194 313.958 236.922 311.483 237.286C310.391 237.432 311.556 237.65 314.031 237.723C320.437 237.869 334.633 239.761 341.84 241.508C349.193 243.183 355.745 246.022 358.001 248.424L359.676 250.172L358.22 252.574C357.492 253.884 354.07 259.781 350.649 265.678C346.062 273.613 344.17 276.234 343.369 275.942C342.786 275.651 341.039 275.214 339.583 274.923L336.89 274.414L339.729 277.034L342.641 279.655L338.564 286.935C332.303 298.146 322.257 320.058 322.257 322.679C322.257 322.97 324.878 318.821 328.008 313.361C337.254 297.564 350.212 276.961 358.729 264.44C363.17 257.961 366.664 252.064 366.664 251.191C366.664 248.643 362.296 244.784 357.492 243.037C350.43 240.417 343.806 239.252 324.66 237.359C321.311 236.995 320.801 236.777 320.801 235.393ZM290.663 225.638C290.59 225.493 276.904 225.274 260.305 225.056C256.318 225.004 251.902 224.947 247.316 224.888C232.812 224.702 216.606 224.494 206.871 224.328L183.503 223.964L176.368 229.133L169.234 234.374L169.671 238.815C169.889 241.29 170.253 249.371 170.545 256.869C170.981 269.245 171.127 270.555 172.292 270.555C173.457 270.555 173.602 269.099 174.112 254.103C174.403 245.076 174.694 237.796 174.84 237.941C174.913 238.087 175.422 243.256 175.859 249.444C177.315 268.371 177.752 268.59 178.116 250.536L178.48 233.792L179.572 246.168L180.664 258.543L181.028 244.348L181.392 230.152L182.338 241.072C182.593 244.056 182.884 247.332 183.139 250.199C183.394 253.065 183.612 255.522 183.721 256.869C183.94 259.635 184.376 261.819 184.668 261.819C184.959 261.819 186.415 259.49 187.943 256.651C192.967 247.041 195.078 245.585 210.001 241.8C227.764 237.359 244.872 235.612 271.88 235.612H291.827L291.318 230.661C291.027 227.968 290.735 225.711 290.663 225.638ZM159.916 280.747C160.353 280.747 160.644 276.961 160.571 270.701C160.498 265.241 160.28 255.85 159.989 249.808L159.552 238.888L148.487 253.011L137.348 267.134L137.785 273.394C137.88 274.879 138.016 276.968 138.163 279.231C138.355 282.182 138.567 285.431 138.732 288.027L139.314 296.399L139.46 283.295C139.605 276.088 139.824 270.555 139.969 270.992C140.188 271.429 140.551 275.578 140.915 280.092L141.498 288.391L141.643 277.908C141.643 272.157 141.935 267.643 142.299 267.934C142.59 268.226 143.172 272.812 143.609 278.053L144.41 287.663L144.555 275.36C144.555 268.59 144.847 263.275 145.138 263.567C145.429 263.785 146.011 268.735 146.521 274.414L147.322 284.751L147.467 272.084C147.467 265.095 147.686 259.563 147.904 259.781C148.123 259.999 148.778 265.386 149.287 271.72L150.234 283.295L150.379 269.463C150.525 261.819 150.743 255.995 150.962 256.505C151.107 257.015 151.69 262.911 152.272 269.609L153.218 281.839L153.364 267.279C153.582 251.118 154.238 252.356 155.402 270.919L156.058 281.111L156.276 264.731L156.494 248.352L157.732 260.363C158.46 266.988 159.115 274.268 159.115 276.525C159.188 278.854 159.552 280.747 159.916 280.747ZM344.679 254.103C343.878 253.375 329.901 249.88 322.621 248.57C315.196 247.332 310.173 247.041 289.862 246.896C276.685 246.75 262.562 246.968 258.558 247.26C225.653 250.172 199.3 258.689 177.388 273.54C166.322 281.038 129.85 308.993 126.065 312.924C125.701 313.361 134.655 308.92 146.084 303.096C189.327 281.038 215.17 270.919 238.611 266.988C250.914 264.877 254.846 265.095 245.09 267.279C227.473 271.356 210.147 277.981 180.736 292.176C145.356 309.211 131.015 315.982 125.701 318.238C122.716 319.549 118.129 321.951 115.582 323.625C113.034 325.227 110.631 326.61 110.194 326.61C109.612 326.61 109.976 330.833 110.704 331.488C110.777 331.633 118.275 329.304 127.229 326.319C147.686 319.476 193.476 305.353 193.84 305.644C193.986 305.79 188.307 307.974 181.173 310.522C165.74 316.054 126.356 330.614 117.765 333.89L111.723 336.22L112.16 340.296C112.451 342.553 112.742 344.519 112.888 344.592C113.616 345.392 136.256 340.952 163.92 334.764C182.12 330.614 197.335 327.775 206.871 326.537C216.117 325.445 232.715 325.591 239.267 326.829C244.363 327.848 245.09 327.848 250.186 326.392C254.482 325.227 257.903 324.863 266.202 324.863C277.923 324.79 282.873 325.737 293.866 330.032C295.305 330.583 296.629 331.096 297.685 331.505C299.138 332.068 300.084 332.434 300.126 332.434C300.182 332.434 300.613 331.262 301.232 329.585C301.429 329.05 301.645 328.464 301.874 327.848C306.605 314.817 319.418 292.104 335.871 267.716C340.821 260.363 344.752 254.248 344.679 254.103ZM128.394 306.591L128.54 295.452C128.54 289.41 128.54 284.387 128.394 284.387C128.176 284.387 113.252 302.223 111.359 304.771C110.777 305.571 110.704 307.901 111.068 312.778L111.65 319.694L111.869 313.142C112.014 309.503 112.233 307.828 112.378 309.284C112.524 310.813 112.961 312.05 113.398 312.05C113.762 312.05 114.126 310.813 114.198 309.284C114.271 307.319 114.417 307.683 114.781 310.959L115.29 315.326L115.363 309.211C115.509 302.223 116.237 301.931 116.965 308.556L117.474 313.142L117.62 307.828C117.693 301.567 119.076 300.694 119.221 306.736C119.367 310.667 119.44 310.449 120.241 304.043C120.896 298.874 121.187 297.928 121.26 300.403C121.333 302.223 121.697 304.989 121.988 306.591C122.497 308.92 122.643 307.901 122.716 301.931C122.716 297.782 122.934 294.506 123.153 294.724C123.371 294.943 123.808 298 124.172 301.567L124.194 301.797C124.754 307.684 124.756 307.703 124.9 303.606C124.9 301.131 125.191 297.564 125.482 295.598L125.992 292.031L127.229 299.311L128.394 306.591ZM310.245 360.316C292.919 343.136 274.283 333.745 250.914 330.614C244.144 329.668 227.255 329.304 220.339 330.032C201.921 331.779 190.928 333.963 169.525 340.151C136.766 349.687 118.566 352.381 87.4812 352.454C68.9175 352.454 62.1473 352.017 52.9018 350.197C45.2579 348.668 67.2432 356.385 79.1822 359.37C93.7419 363.082 100.876 363.956 115.873 364.029C138.44 364.102 155.184 360.607 185.468 349.615C224.052 335.71 243.926 333.235 268.095 339.35C284.329 343.427 296.122 349.906 313.521 364.174C315.341 365.63 313.885 363.956 310.245 360.316ZM343.66 354.274C335.798 350.488 324.514 343.281 321.602 340.151C320.877 339.4 320.446 338.916 319.907 338.683C318.932 338.261 317.601 338.661 313.521 339.787C310.901 340.515 306.678 341.097 304.13 341.097L299.544 341.17L303.402 343.864C312.793 350.343 315.05 351.726 323.349 355.73C346.426 366.868 377.584 372.619 404.156 370.581L412.164 369.998L403.282 369.416C382.171 368.106 361.714 362.864 343.66 354.274Z" fill="white"/></svg>