<svg width="159" height="91" fill="none" xmlns="http://www.w3.org/2000/svg"><path d="M13.7367 1.84353C9.76023 7.27075 9.63359 13.4916 13.3568 18.9444C14.2686 20.2756 16.7761 22.682 17.6879 23.0916C18.2451 23.3476 18.3717 23.2964 18.9036 22.6308C22.4749 18.0996 22.6775 11.3156 19.3849 5.63234C18.4731 4.09634 15.3577 0.486719 14.9271 0.486719C14.8005 0.486719 14.2686 1.10112 13.7367 1.84353Z" fill="#203C5C"/><path d="M142.174 1.81649C139.033 4.76051 136.779 9.95733 136.779 14.3093C136.779 17.2534 138.274 21.4262 139.895 22.9622L140.477 23.5254L141.896 22.5014C143.517 21.3494 145.517 18.9174 146.505 16.9462C148.304 13.3365 148.329 8.47252 146.607 4.83731C146.075 3.7365 144.555 1.40689 144.15 1.04849C143.593 0.587687 143.466 0.638885 142.174 1.81649Z" fill="#203C5C"/><path d="M27.7173 17.5613C22.449 23.8077 21.8665 32.1533 26.3242 37.6062L27.0587 38.4766L28.0212 37.811C30.4527 36.1982 32.5802 33.3309 33.644 30.3101C34.4545 27.9549 34.5558 24.1149 33.8466 21.9901C32.9601 19.3277 30.5793 15.5901 29.7688 15.5901C29.5662 15.5901 28.6544 16.4861 27.7173 17.5613Z" fill="#203C5C"/><path d="M127.484 16.9208C126.015 18.892 125.432 19.9672 124.875 21.6824C123.254 26.6488 124.596 32.076 128.396 35.9928C129.307 36.9656 130.371 37.8872 130.776 38.0921C131.41 38.4249 131.511 38.4249 132.119 37.836C133.107 36.9144 134.728 33.356 135.032 31.4616C135.614 27.9544 134.728 23.5768 132.777 20.3256C131.916 18.8664 129.054 15.5895 128.674 15.5895C128.573 15.5895 128.041 16.2039 127.484 16.9208Z" fill="#203C5C"/><path d="M0.110032 23.1415C-0.193904 24.7799 0.160687 28.1335 0.819215 30.0791C2.06029 33.6631 4.56775 36.4535 8.08834 38.1431C9.88663 39.0135 13.1286 39.7303 14.623 39.6023L15.5854 39.5255L15.6614 37.7335C15.8387 33.8423 14.547 30.5399 11.7102 27.6471C10.7731 26.6999 9.2281 25.4455 8.24031 24.8823C6.46735 23.8327 3.37734 22.7062 1.3511 22.3734L0.287327 22.1942L0.110032 23.1415Z" fill="#203C5C"/><path d="M154.56 23.1678C152.052 23.9102 150.786 24.5246 149.013 25.8558C144.758 29.0814 142.858 32.6655 142.858 37.5295V39.6543H144.327C148.101 39.6287 151.774 38.0671 154.509 35.3023C156.46 33.3311 157.371 31.7183 158.055 29.0046C158.536 27.1102 158.739 23.7566 158.41 22.9118C158.182 22.3486 157.067 22.3998 154.56 23.1678Z" fill="#203C5C"/><path d="M17.2066 27.2882C17.08 28.1074 17.3586 31.0002 17.7638 33.125C18.625 37.5026 20.4486 42.6227 22.4748 46.3859C23.0827 47.4611 23.5639 48.4083 23.5639 48.4851C23.5639 48.8435 27.0592 53.9635 28.7562 56.0627C37.9502 67.5828 51.754 76.5428 69.9395 82.7637C72.2443 83.5573 74.2959 84.1973 74.5238 84.1973C74.7518 84.1973 74.9797 83.7621 75.1824 82.9685C75.3343 82.3029 75.5369 81.5605 75.6129 81.3301C75.7649 80.9717 75.3596 80.7668 73.1561 80.0756C65.9123 77.7972 55.6545 73.2916 50.4116 70.0404C49.4998 69.4772 48.4107 68.8116 47.9801 68.5556C45.8019 67.3268 41.3189 63.9476 38.5074 61.4388C29.8959 53.7843 24.1465 44.6963 21.6643 34.917C21.2844 33.3554 20.9045 31.0002 20.8032 29.669L20.6512 27.237L18.9543 27.1602C17.9918 27.109 17.2066 27.1858 17.2066 27.2882Z" fill="#203C5C"/><path d="M138.376 27.2882C137.844 27.3906 137.793 27.5442 137.793 29.0802C137.793 30.0018 137.565 31.845 137.287 33.2018C134.728 45.9763 126.32 57.7267 113.25 66.8916C106.614 71.5252 96.5592 76.4148 87.1879 79.5636C85.0603 80.2804 83.2114 80.9205 83.0847 80.9973C82.9834 81.0741 83.0594 81.8165 83.262 82.6613C83.5913 83.9413 83.7432 84.1973 84.1991 84.1973C84.4778 84.1973 86.3774 83.6085 88.4036 82.8917C90.4298 82.2005 92.5321 81.4581 93.0893 81.2533C96.4579 80.1268 104.841 76.1588 108.767 73.8548C114.263 70.6292 119.861 66.482 124.268 62.3348C127.941 58.93 133.133 52.0947 135.691 47.3587C138.705 41.8035 141.111 34.021 141.364 28.901L141.466 27.237L140.199 27.2114C139.515 27.1858 138.68 27.2114 138.376 27.2882Z" fill="#203C5C"/><path d="M34.9362 34.9703C34.4803 35.6615 34.0244 36.2503 33.8978 36.3271C33.7965 36.4039 33.3153 37.3255 32.834 38.3751C31.1624 42.0359 30.7065 46.6183 31.6689 49.8951C32.4541 52.6088 33.9485 55.0408 35.6454 56.372C36.1773 56.8072 36.2533 56.8072 36.8105 56.4232C37.6717 55.86 39.5713 53.3512 40.4071 51.7128C41.5215 49.4855 41.8761 47.9239 41.8761 45.2871C41.8761 42.1127 41.1669 39.7575 39.4193 37.2231C38.6595 36.1223 36.3546 33.7671 36.0254 33.7671C35.8734 33.7671 35.3668 34.3047 34.9362 34.9703Z" fill="#203C5C"/><path d="M121.431 34.7388C115.783 40.038 115.023 47.5132 119.456 53.8621C120.038 54.7069 120.925 55.7821 121.406 56.2429L122.292 57.1133L123.559 55.8077C126.978 52.3517 128.168 47.3852 126.902 42.0348C126.244 39.1932 124.369 35.5324 122.926 34.2268C122.47 33.8172 122.394 33.8428 121.431 34.7388Z" fill="#203C5C"/><path d="M4.26455 41.7023C3.30209 41.7791 2.46626 41.9583 2.39028 42.0351C2.08634 42.3167 2.7702 45.0815 3.53004 46.6943C5.15103 50.2271 7.15194 52.2239 10.6725 53.8367C12.8001 54.8351 16.27 55.1679 19.1067 54.6815C20.3478 54.4511 21.4622 54.1695 21.6142 54.0159C21.9688 53.6575 21.4369 51.3279 20.6011 49.6383C19.7906 47.9999 17.3844 45.3375 15.7634 44.2879C14.0158 43.1615 11.0018 42.0351 9.25416 41.8303C6.29079 41.5231 5.9362 41.5231 4.26455 41.7023Z" fill="#203C5C"/><path d="M148.81 41.9577C147.341 42.2649 144.428 43.4169 143.111 44.1849C140.503 45.7465 138.324 48.4345 137.337 51.3785C136.475 53.8105 136.551 54.1177 137.995 54.5017C139.844 54.9881 143.415 55.1161 145.188 54.7833C149.342 53.9641 152.939 51.1481 154.762 47.3081C155.75 45.2345 156.51 42.3673 156.206 42.0345C155.927 41.7785 149.925 41.7017 148.81 41.9577Z" fill="#203C5C"/><path d="M46.8144 45.4913C44.9402 48.333 44.079 51.021 43.9017 54.5026C43.7498 57.7794 44.0537 59.6738 45.1681 62.0546C46.0799 63.949 48.2328 66.5602 49.4232 67.1746C50.1071 67.5586 50.1324 67.5586 51.3988 65.8178C53.2477 63.3602 54.2102 60.877 54.4382 57.9842C54.7421 54.0674 53.7796 50.7394 51.4495 47.8722C50.5377 46.7458 48.0049 44.5185 47.6249 44.5185C47.5236 44.5185 47.1437 44.9537 46.8144 45.4913Z" fill="#203C5C"/><path d="M110.566 44.8269C109.603 45.3645 108.59 46.3373 107.172 48.0781C104.639 51.0989 103.803 53.9405 104.158 58.2925C104.335 60.4686 104.487 61.0062 105.475 63.0798C106.083 64.3598 107.045 65.8958 107.602 66.5358C108.565 67.6366 108.615 67.6622 109.223 67.2526C111.199 65.947 113.073 63.387 114.036 60.6478C115.201 57.3709 114.821 51.5597 113.225 48.3341C112.541 46.9517 111.199 44.5197 111.123 44.5197C111.098 44.5197 110.844 44.6733 110.566 44.8269Z" fill="#203C5C"/><path d="M57.7054 57.1381C56.8443 59.903 56.895 64.3318 57.8321 67.1734C59.3518 71.7558 62.0365 74.8022 65.8104 76.2614L67.1528 76.7734L67.7607 75.4422C68.4445 73.8806 69.1537 70.655 69.1537 69.0422C69.1537 67.2758 68.4698 64.4854 67.6087 62.719C66.1903 59.8262 62.8217 56.8821 59.6304 55.7813L58.2627 55.2949L57.7054 57.1381Z" fill="#203C5C"/><path d="M98.5348 55.9866C94.5077 57.5994 91.2403 61.1066 90.0499 65.1258C89.3661 67.3274 89.4167 71.449 90.1259 73.8042C90.8351 76.1595 91.3163 76.8507 92.0255 76.6203C95.0142 75.6731 98.3322 72.7546 99.6999 69.8618C101.042 66.9946 101.448 65.2026 101.422 61.9258C101.397 58.7002 100.738 55.705 100.054 55.6026C99.8519 55.577 99.168 55.7562 98.5348 55.9866Z" fill="#203C5C"/><path d="M14.7996 58.0857C12.7987 58.5977 11.1523 59.2633 11.1523 59.5193C11.1523 59.5961 11.5829 60.4921 12.0895 61.5161C13.9384 65.0745 17.6363 68.0442 21.2329 68.8122C24.2722 69.4522 28.2741 69.017 30.9335 67.7114C33.061 66.6873 33.1117 66.5849 32.1492 64.7673C29.2365 59.2121 21.6128 56.2681 14.7996 58.0857Z" fill="#203C5C"/><path d="M136.273 57.9576C132.727 58.6744 129.941 60.2616 127.94 62.6936C126.572 64.3576 125.457 66.4568 125.787 66.7896C126.977 67.9416 131.612 69.3496 134.221 69.3496C137.767 69.3496 141.439 67.6856 143.998 64.972C145.644 63.18 147.645 59.7496 147.24 59.3656C146.91 59.0584 143.871 58.1368 142.25 57.8552C140.325 57.4968 138.349 57.5224 136.273 57.9576Z" fill="#203C5C"/><path d="M32.3024 70.5525C29.339 70.9621 25.5145 72.6517 23.5895 74.3925C22.4751 75.3909 22.4751 75.4165 22.8804 76.0309C24.1468 77.8486 27.8953 80.255 30.656 80.9974C35.0884 82.2006 40.5086 80.5366 44.1305 76.9013L45.3463 75.6981L44.8397 74.9557C42.6108 71.8325 37.0893 69.8869 32.3024 70.5525Z" fill="#203C5C"/><path d="M119.937 71.1156C117.936 71.6788 115.884 72.882 114.415 74.3413L113.225 75.5445L113.731 76.2613C114.871 77.8741 118.265 80.0757 120.874 80.8949C122.343 81.3557 123.077 81.4069 125.331 81.3301C129.257 81.1765 131.613 80.1013 134.829 77.0549L136.298 75.6469L135.716 75.0837C134.12 73.4965 131.005 71.8068 128.345 71.1156C125.99 70.5012 122.039 70.5012 119.937 71.1156Z" fill="#203C5C"/><path d="M49.7781 79.4888C46.3082 80.1288 41.8251 82.7145 39.9255 85.1465L39.4189 85.8121L40.3308 86.6057C46.916 92.3401 56.3634 91.2649 61.4796 84.1993L62.3154 83.0729L61.3783 82.3049C58.263 79.668 54.0838 78.6696 49.7781 79.4888Z" fill="#203C5C"/><path d="M102.055 79.7948C100.333 80.2556 97.876 81.5868 96.9642 82.5852C96.4577 83.1228 96.4577 83.2252 96.7869 83.8652C97.6987 85.606 101.042 88.3708 103.474 89.3693C108.235 91.3405 114.187 90.2909 118.037 86.8092L119.177 85.7852L118.037 84.582C116.695 83.174 114.187 81.4844 112.212 80.614C109.147 79.3084 105.17 78.9756 102.055 79.7948Z" fill="#203C5C"/></svg>